<svg width="92" height="95" viewBox="0 0 92 95" fill="none" xmlns="http://www.w3.org/2000/svg">
<g clip-path="url(#clip0_84_1898)">
<path d="M31.1566 18.5575H9.44458V52.8698H31.1566V18.5575Z" fill="#E0E0E0"/>
<path d="M30.4971 19.2023H10.0298V52.3061H30.4971V19.2023Z" fill="#F5F5F5"/>
<path d="M28.4244 21.1301H20.2627V33.7944H28.4244V21.1301Z" fill="white"/>
<path d="M24.7776 22.2617C24.7776 22.3222 24.7597 22.3812 24.7261 22.4314C24.6926 22.4817 24.6449 22.5208 24.5891 22.5439C24.5333 22.5671 24.4718 22.5731 24.4126 22.5613C24.3533 22.5495 24.2989 22.5204 24.2562 22.4777C24.2135 22.435 24.1844 22.3806 24.1726 22.3213C24.1608 22.2621 24.1669 22.2007 24.19 22.1449C24.2131 22.0891 24.2523 22.0414 24.3025 22.0078C24.3527 21.9742 24.4118 21.9563 24.4722 21.9563C24.5532 21.9563 24.6309 21.9885 24.6882 22.0458C24.7454 22.1031 24.7776 22.1807 24.7776 22.2617Z" fill="#E0E0E0"/>
<path d="M20.2008 37.3191H12.0391V49.9834H20.2008V37.3191Z" fill="white"/>
<path d="M16.553 38.4379C16.5534 38.4984 16.5359 38.5577 16.5026 38.6082C16.4693 38.6587 16.4217 38.6982 16.3659 38.7216C16.3102 38.7451 16.2487 38.7514 16.1893 38.7399C16.1299 38.7284 16.0753 38.6994 16.0324 38.6568C15.9894 38.6142 15.9601 38.5598 15.9482 38.5005C15.9362 38.4412 15.9421 38.3796 15.9652 38.3237C15.9882 38.2678 16.0274 38.2199 16.0777 38.1863C16.1279 38.1526 16.1871 38.1346 16.2476 38.1346C16.3282 38.1346 16.4056 38.1665 16.4628 38.2233C16.52 38.2802 16.5524 38.3573 16.553 38.4379Z" fill="#E0E0E0"/>
<path d="M18.898 21.1301H11.9275V31.019H18.898V21.1301Z" fill="white"/>
<path d="M15.6668 22.029C15.6668 22.0793 15.6519 22.1284 15.624 22.1702C15.596 22.212 15.5563 22.2446 15.5099 22.2638C15.4634 22.2831 15.4123 22.2881 15.363 22.2783C15.3137 22.2685 15.2684 22.2443 15.2329 22.2087C15.1973 22.1732 15.1731 22.1279 15.1633 22.0786C15.1535 22.0293 15.1586 21.9782 15.1778 21.9318C15.197 21.8853 15.2296 21.8456 15.2714 21.8177C15.3132 21.7898 15.3624 21.7749 15.4126 21.7749C15.4461 21.7746 15.4793 21.7809 15.5102 21.7936C15.5412 21.8063 15.5693 21.825 15.593 21.8487C15.6166 21.8723 15.6354 21.9005 15.648 21.9314C15.6607 21.9624 15.6671 21.9956 15.6668 22.029Z" fill="#E0E0E0"/>
<path d="M28.6957 37.4871L21.241 38.3285L21.7072 42.459L29.1619 41.6175L28.6957 37.4871Z" fill="white"/>
<path d="M25.3118 38.7005C25.3118 38.7516 25.2967 38.8016 25.2683 38.8441C25.2399 38.8866 25.1995 38.9197 25.1523 38.9393C25.105 38.9588 25.0531 38.964 25.0029 38.954C24.9528 38.944 24.9068 38.9194 24.8706 38.8833C24.8345 38.8471 24.8099 38.8011 24.7999 38.7509C24.7899 38.7008 24.795 38.6488 24.8146 38.6016C24.8342 38.5544 24.8673 38.514 24.9098 38.4856C24.9523 38.4572 25.0022 38.4421 25.0534 38.4421C25.0873 38.4421 25.1209 38.4487 25.1523 38.4617C25.1836 38.4747 25.2121 38.4938 25.2361 38.5178C25.2601 38.5418 25.2791 38.5703 25.2921 38.6016C25.3051 38.633 25.3118 38.6666 25.3118 38.7005Z" fill="#E0E0E0"/>
<path d="M19.1089 40.2076C19.1089 40.2418 17.828 40.2695 16.2482 40.2695C14.6683 40.2695 13.3853 40.2418 13.3853 40.2076C13.3853 40.1735 14.6662 40.1478 16.2482 40.1478C17.8301 40.1478 19.1089 40.1735 19.1089 40.2076Z" fill="#E0E0E0"/>
<path d="M19.1089 41.1128C19.1089 41.147 17.828 41.1747 16.2482 41.1747C14.6683 41.1747 13.3853 41.147 13.3853 41.1128C13.3853 41.0787 14.6662 41.053 16.2482 41.053C17.8301 41.053 19.1089 41.0808 19.1089 41.1128Z" fill="#E0E0E0"/>
<path d="M19.1089 42.0202C19.1089 42.0543 17.828 42.0799 16.2482 42.0799C14.6683 42.0799 13.3853 42.0543 13.3853 42.0202C13.3853 41.986 14.6662 41.9583 16.2482 41.9583C17.8301 41.9583 19.1089 41.986 19.1089 42.0202Z" fill="#E0E0E0"/>
<path d="M19.1089 42.9254C19.1089 42.9595 17.828 42.9873 16.2482 42.9873C14.6683 42.9873 13.3853 42.9595 13.3853 42.9254C13.3853 42.8912 14.6662 42.8656 16.2482 42.8656C17.8301 42.8656 19.1089 42.8933 19.1089 42.9254Z" fill="#E0E0E0"/>
<path d="M19.1089 43.8241C19.1089 43.8562 17.828 43.8839 16.2482 43.8839C14.6683 43.8839 13.3853 43.8562 13.3853 43.8241C13.3853 43.7921 14.6662 43.7622 16.2482 43.7622C17.8301 43.7622 19.1089 43.7985 19.1089 43.8241Z" fill="#E0E0E0"/>
<path d="M19.1089 44.7379C19.1089 44.7721 17.828 44.7998 16.2482 44.7998C14.6683 44.7998 13.3853 44.7721 13.3853 44.7379C13.3853 44.7038 14.6662 44.6781 16.2482 44.6781C17.8301 44.6781 19.1089 44.7038 19.1089 44.7379Z" fill="#E0E0E0"/>
<path d="M19.1089 45.6453C19.1089 45.6773 17.828 45.705 16.2482 45.705C14.6683 45.705 13.3853 45.6773 13.3853 45.6453C13.3853 45.6132 14.6662 45.5833 16.2482 45.5833C17.8301 45.5833 19.1089 45.6111 19.1089 45.6453Z" fill="#E0E0E0"/>
<path d="M27.9924 39.2362C27.9924 39.2704 26.7328 39.4775 25.1679 39.6974C23.603 39.9173 22.3285 40.071 22.3242 40.0368C22.32 40.0027 23.586 39.7977 25.1508 39.5778C26.7157 39.3579 27.9881 39.2042 27.9924 39.2362Z" fill="#E0E0E0"/>
<path d="M28.102 39.8041C28.102 39.8362 26.8403 40.0432 25.2754 40.2631C23.7105 40.483 22.4381 40.6367 22.4338 40.6047C22.4296 40.5727 23.6934 40.3635 25.2583 40.1436C26.8232 39.9237 28.102 39.7678 28.102 39.8041Z" fill="#E0E0E0"/>
<path d="M28.2104 40.3272C28.2104 40.3614 26.9508 40.5663 25.3859 40.7883C23.8211 41.0104 22.5508 41.1598 22.5508 41.1278C22.5508 41.0958 23.8104 40.8887 25.3774 40.6666C26.9444 40.4446 28.2061 40.293 28.2104 40.3272Z" fill="#E0E0E0"/>
<path d="M27.707 23.7795C27.707 23.8137 26.2596 23.8414 24.4727 23.8414C22.6857 23.8414 21.2383 23.8137 21.2383 23.7795C21.2383 23.7453 22.6857 23.7197 24.4727 23.7197C26.2596 23.7197 27.707 23.756 27.707 23.7795Z" fill="#E0E0E0"/>
<path d="M27.707 24.3175C27.707 24.3517 26.2596 24.3794 24.4727 24.3794C22.6857 24.3794 21.2383 24.3517 21.2383 24.3175C21.2383 24.2834 22.6857 24.2577 24.4727 24.2577C26.2596 24.2577 27.707 24.2855 27.707 24.3175Z" fill="#E0E0E0"/>
<path d="M27.707 24.8576C27.707 24.8918 26.2596 24.9174 24.4727 24.9174C22.6857 24.9174 21.2383 24.8918 21.2383 24.8576C21.2383 24.8235 22.6857 24.7957 24.4727 24.7957C26.2596 24.7957 27.707 24.8235 27.707 24.8576Z" fill="#E0E0E0"/>
<path d="M27.707 25.3957C27.707 25.4298 26.2596 25.4576 24.4727 25.4576C22.6857 25.4576 21.2383 25.4298 21.2383 25.3957C21.2383 25.3615 22.6857 25.3359 24.4727 25.3359C26.2596 25.3359 27.707 25.3615 27.707 25.3957Z" fill="#E0E0E0"/>
<path d="M27.707 25.9336C27.707 25.9678 26.2596 25.9956 24.4727 25.9956C22.6857 25.9956 21.2383 25.9678 21.2383 25.9336C21.2383 25.8995 22.6857 25.8739 24.4727 25.8739C26.2596 25.8739 27.707 25.9016 27.707 25.9336Z" fill="#E0E0E0"/>
<path d="M27.707 26.4738C27.707 26.5079 26.2596 26.5336 24.4727 26.5336C22.6857 26.5336 21.2383 26.5079 21.2383 26.4738C21.2383 26.4396 22.6857 26.4119 24.4727 26.4119C26.2596 26.4119 27.707 26.4396 27.707 26.4738Z" fill="#E0E0E0"/>
<path d="M27.707 27.0118C27.707 27.0459 26.2596 27.0737 24.4727 27.0737C22.6857 27.0737 21.2383 27.0459 21.2383 27.0118C21.2383 26.9776 22.6857 26.9584 24.4727 26.9584C26.2596 26.9584 27.707 26.9776 27.707 27.0118Z" fill="#E0E0E0"/>
<path d="M27.707 28.6108C27.707 28.645 26.2596 28.6727 24.4727 28.6727C22.6857 28.6727 21.2383 28.645 21.2383 28.6108C21.2383 28.5767 22.6857 28.5511 24.4727 28.5511C26.2596 28.5511 27.707 28.5767 27.707 28.6108Z" fill="#E0E0E0"/>
<path d="M27.7515 29.1808C27.7515 29.2129 26.3041 29.2406 24.5172 29.2406C22.7302 29.2406 21.2849 29.2129 21.2849 29.1808C21.2849 29.1488 22.7324 29.1189 24.5172 29.1189C26.3019 29.1189 27.7515 29.1467 27.7515 29.1808Z" fill="#E0E0E0"/>
<path d="M27.7965 29.7487C27.7965 29.7829 26.349 29.8107 24.5642 29.8107C22.7794 29.8107 21.3298 29.7829 21.3298 29.7487C21.3298 29.7146 22.7773 29.689 24.5642 29.689C26.3511 29.689 27.7965 29.7146 27.7965 29.7487Z" fill="#E0E0E0"/>
<path d="M27.8438 30.3188C27.8438 30.3508 26.3942 30.3785 24.6094 30.3785C22.8246 30.3785 21.375 30.3508 21.375 30.3188C21.375 30.2867 22.8225 30.2568 24.6094 30.2568C26.3963 30.2568 27.8438 30.2846 27.8438 30.3188Z" fill="#E0E0E0"/>
<path d="M27.8883 30.8866C27.8883 30.9208 26.4408 30.9485 24.6539 30.9485C22.867 30.9485 21.4216 30.9208 21.4216 30.8866C21.4216 30.8525 22.8691 30.8269 24.6539 30.8269C26.4387 30.8269 27.8883 30.8546 27.8883 30.8866Z" fill="#E0E0E0"/>
<path d="M27.9332 31.4566C27.9332 31.4908 26.4857 31.5164 24.7009 31.5164C22.9162 31.5164 21.4666 31.4908 21.4666 31.4566C21.4666 31.4225 22.914 31.3947 24.7009 31.3947C26.4879 31.3947 27.9332 31.4225 27.9332 31.4566Z" fill="#E0E0E0"/>
<path d="M17.929 39.9429C17.9887 40.0774 19.1928 41.9796 20.2197 42.4834C21.2466 42.9872 22.6749 43.8818 23.3431 45.2588C24.0113 46.6358 24.4105 47.7652 24.9934 47.6969C25.5762 47.6285 25.0617 52.4193 23.9579 52.4385C22.8542 52.4577 20.7428 51.7105 19.5814 50.8907C18.42 50.0709 17.5468 49.456 16.838 48.6063C16.1292 47.7566 16.4815 47.1653 16.4815 47.1653C16.4815 47.1653 15.6809 46.4992 15.7813 45.8288C15.8816 45.1584 15.8816 45.152 15.8816 45.152C15.4418 44.7592 15.0618 44.1187 15.9926 43.5679C15.9926 43.5679 14.6455 42.8293 14.9764 42.1589C15.3073 41.4885 16.2403 41.7319 16.2403 41.7319L17.1049 41.1256C17.1049 41.1256 16.7975 40.7776 17.1049 40.1073C17.1285 40.0236 17.1748 39.9481 17.2387 39.8891C17.3025 39.8301 17.3814 39.7899 17.4666 39.7729C17.5519 39.7559 17.6402 39.7628 17.7217 39.7927C17.8033 39.8227 17.875 39.8747 17.929 39.9429Z" fill="#FFBF9D"/>
<path d="M25.7552 47.4001L24.7625 46.7682L22.0469 53.2028L23.2275 53.8432L25.7552 47.4001Z" fill="#E0E0E0"/>
<path d="M22.3113 49.7485C22.2467 49.742 22.1838 49.7239 22.1256 49.6951C21.9632 49.6303 21.8092 49.5464 21.6666 49.4453C21.2027 49.099 20.8352 48.6396 20.5991 48.111C20.3672 47.5863 20.2043 47.0337 20.1145 46.4671C20.063 46.2362 20.0322 46.0011 20.0227 45.7647C20.095 45.9897 20.1513 46.2194 20.1914 46.4522C20.3021 47.0065 20.4732 47.547 20.7016 48.064C20.9331 48.5775 21.2828 49.0288 21.7221 49.3813C21.9108 49.5156 22.1076 49.6383 22.3113 49.7485Z" fill="#003032"/>
<path d="M75.3418 75.0429L74.0609 65.5596L46.8664 67.7457C46.1038 71.1227 45.8462 74.5941 46.1021 78.0467C46.1576 78.7619 46.9988 85.9736 48.0855 95H61.3752L60.8287 83.8792L61.6442 84.0564C61.6442 84.0564 62.8078 89.2443 64.046 94.9445L77.4959 95.0021L75.3418 75.0429Z" fill="#263238"/>
<path d="M62.4012 78.0723C62.2727 78.1676 62.1329 78.2465 61.9849 78.3071C61.595 78.5051 61.1798 78.6488 60.7509 78.7341C60.4467 78.7899 60.1349 78.7899 59.8307 78.7341C59.4727 78.6762 59.1391 78.5161 58.87 78.273C58.5906 77.9899 58.3897 77.639 58.2872 77.2546C58.1698 76.8682 58.1036 76.4647 58.0203 76.0548C57.7022 74.4131 57.4866 72.9122 57.3607 71.8234C57.2987 71.279 57.2561 70.8371 57.2347 70.5318C57.2108 70.3743 57.2065 70.2143 57.2219 70.0557C57.2714 70.2074 57.3029 70.3643 57.3158 70.5233C57.3692 70.8691 57.4332 71.2982 57.5101 71.8042C57.6724 72.8845 57.9115 74.3768 58.2274 76.0142C58.3897 76.8255 58.4986 77.6496 59.0045 78.1321C59.5105 78.6146 60.2129 78.6551 60.7274 78.5804C61.1483 78.5071 61.5594 78.386 61.9528 78.2196C62.0965 78.1545 62.2469 78.1051 62.4012 78.0723Z" fill="#455A64"/>
<path d="M59.3999 70.3525C59.3999 70.3525 59.464 70.3012 59.6135 70.2927C59.8144 70.2868 60.0113 70.3501 60.171 70.4721C60.2967 70.5586 60.4007 70.6731 60.4748 70.8065C60.5489 70.9399 60.5911 71.0886 60.5982 71.241C60.5864 71.4306 60.5201 71.6128 60.4075 71.7658C60.2949 71.9187 60.1406 72.036 59.963 72.1036C59.7855 72.1712 59.5923 72.1862 59.4064 72.1469C59.2206 72.1075 59.05 72.0155 58.9151 71.8818C58.82 71.7635 58.7533 71.625 58.7204 71.4768C58.6874 71.3287 58.689 71.1749 58.725 71.0274C58.7663 70.8311 58.8723 70.6543 59.0262 70.5255C59.1372 70.4401 59.2184 70.4273 59.2205 70.4358C59.0403 70.5993 58.9175 70.8165 58.8702 71.0552C58.8497 71.1788 58.8561 71.3053 58.8889 71.4262C58.9217 71.5471 58.9802 71.6595 59.0603 71.7558C59.1705 71.8544 59.3056 71.921 59.4509 71.9483C59.5963 71.9757 59.7463 71.9626 59.8848 71.9107C60.0232 71.8587 60.1448 71.7698 60.2363 71.6537C60.3278 71.5375 60.3857 71.3985 60.4038 71.2517C60.4011 71.1266 60.3712 71.0035 60.3162 70.891C60.2613 70.7786 60.1826 70.6794 60.0856 70.6003C59.8908 70.4439 59.6496 70.3567 59.3999 70.3525Z" fill="#455A64"/>
<path d="M59.3367 26.6766L56.4482 9.6934C55.8675 5.44494 52.9128 2.24258 48.6814 2.94069L48.295 3.02822C46.4151 3.45125 44.7637 4.56702 43.6697 6.15322C42.5757 7.73941 42.1195 9.67956 42.392 11.5871C42.915 15.2676 43.5406 19.3261 44.0017 21.2582C44.9581 25.2611 49.1127 24.9793 49.1127 24.9793C49.1127 24.9793 49.5866 27.4345 49.8022 28.6236L49.3582 31.5719L52.537 30.1607L59.3367 26.6766Z" fill="#FFBF9D"/>
<path d="M49.1128 24.9751C49.1128 24.9751 51.6747 24.5481 53.9889 22.2509C53.9889 22.2509 53.4125 25.5515 49.3263 26.0937L49.1128 24.9751Z" fill="#003032"/>
<path d="M44.4007 14.969C44.4336 15.1184 44.5233 15.2492 44.6509 15.3337C44.7784 15.4182 44.9338 15.4498 45.0842 15.4218C45.1575 15.4111 45.228 15.3861 45.2916 15.348C45.3552 15.31 45.4106 15.2597 45.4546 15.2001C45.4987 15.1406 45.5306 15.0729 45.5484 15.001C45.5662 14.929 45.5696 14.8543 45.5584 14.7811C45.5269 14.6312 45.438 14.4996 45.3106 14.4145C45.1832 14.3294 45.0275 14.2977 44.877 14.3261C44.8034 14.3368 44.7327 14.362 44.6688 14.4001C44.605 14.4383 44.5494 14.4887 44.5051 14.5485C44.4608 14.6082 44.4288 14.6761 44.4109 14.7483C44.393 14.8205 44.3895 14.8955 44.4007 14.969Z" fill="#263238"/>
<path d="M43.6453 13.1626C43.7328 13.2224 44.0936 12.8039 44.7128 12.6652C45.3319 12.5264 45.8528 12.7335 45.9019 12.6438C45.9275 12.6033 45.8251 12.4837 45.5945 12.3855C45.2865 12.2595 44.9467 12.2333 44.6231 12.3108C44.3021 12.3816 44.0119 12.5529 43.7948 12.7997C43.6368 12.9876 43.6026 13.137 43.6453 13.1626Z" fill="#263238"/>
<path d="M49.7255 14.1169C49.8151 14.1724 50.1524 13.739 50.7716 13.5789C51.3907 13.4188 51.9137 13.6024 51.9586 13.5106C51.982 13.4679 51.8774 13.3547 51.6426 13.2651C51.33 13.1515 50.9897 13.138 50.6691 13.2267C50.3507 13.3096 50.0673 13.4921 49.86 13.7476C49.7105 13.9354 49.6828 14.0934 49.7255 14.1169Z" fill="#263238"/>
<path d="M48.579 17.1805C48.579 17.1442 48.1755 17.1656 47.5372 17.2253C47.3749 17.2446 47.2191 17.2467 47.1678 17.1463C47.1188 16.9863 47.1188 16.8153 47.1678 16.6553C47.2304 16.2411 47.2959 15.8063 47.3642 15.3509C47.6247 13.4978 47.7763 11.9884 47.7015 11.9777C47.6268 11.9671 47.3535 13.4722 47.0931 15.3167C47.0333 15.7715 46.9735 16.207 46.918 16.6233C46.8621 16.8372 46.8833 17.0639 46.9778 17.2638C47.0131 17.314 47.0592 17.3557 47.1128 17.3856C47.1664 17.4156 47.2261 17.433 47.2874 17.4367C47.3798 17.4398 47.4722 17.4319 47.5628 17.4132C48.1968 17.3001 48.5961 17.2168 48.579 17.1805Z" fill="#263238"/>
<path d="M49.1295 12.6865C49.2533 12.821 49.8062 12.505 50.5257 12.3044C51.2452 12.1037 51.8771 12.0631 51.9091 11.8774C51.9219 11.792 51.7639 11.6831 51.4821 11.6212C51.1061 11.552 50.719 11.5732 50.3528 11.6831C49.984 11.7839 49.6449 11.9721 49.3643 12.2318C49.1487 12.441 49.074 12.6203 49.1295 12.6865Z" fill="#263238"/>
<path d="M43.1756 11.3266C43.3336 11.4397 43.8054 11.1878 44.4096 11.0533C45.0138 10.9188 45.5496 10.9145 45.635 10.7416C45.6734 10.6605 45.5624 10.5281 45.3105 10.4491C44.9669 10.3494 44.6029 10.3428 44.2559 10.4299C43.9076 10.5067 43.5867 10.6764 43.3272 10.9209C43.1436 11.111 43.103 11.2689 43.1756 11.3266Z" fill="#263238"/>
<path d="M56.7915 12.7378C56.8534 12.6929 59.3641 11.301 59.8957 14.0635C60.4272 16.8261 57.5473 16.7919 57.5238 16.713C57.5003 16.634 56.7915 12.7378 56.7915 12.7378Z" fill="#FFBF9D"/>
<path d="M58.167 15.5025C58.167 15.5025 58.2225 15.5281 58.31 15.5495C58.4338 15.5763 58.5631 15.5541 58.6708 15.4875C58.942 15.3253 59.0978 14.8129 59.0167 14.3133C58.9792 14.0747 58.8879 13.8476 58.7498 13.6494C58.7077 13.5691 58.6469 13.5001 58.5727 13.4481C58.4984 13.3961 58.4127 13.3626 58.3228 13.3505C58.2648 13.3462 58.2072 13.3624 58.1599 13.3964C58.1127 13.4304 58.0789 13.4799 58.0645 13.5362C58.0432 13.6216 58.0645 13.6729 58.0645 13.6793C58.0645 13.6857 57.9962 13.6451 57.9983 13.5277C57.9992 13.4561 58.0257 13.3871 58.0731 13.3334C58.1048 13.2974 58.1435 13.2681 58.1867 13.2472C58.23 13.2263 58.277 13.2142 58.325 13.2117C58.4427 13.2118 58.5585 13.2423 58.661 13.3003C58.7635 13.3583 58.8492 13.4417 58.9099 13.5426C59.0735 13.7597 59.1819 14.0132 59.2259 14.2813C59.3156 14.8407 59.1298 15.4171 58.7541 15.6092C58.6839 15.6446 58.6067 15.6641 58.5282 15.6663C58.4496 15.6685 58.3715 15.6534 58.2994 15.622C58.1841 15.5687 58.1585 15.511 58.167 15.5025Z" fill="#003032"/>
<path d="M59.0253 6.20069C59.3259 6.08605 59.5972 5.90592 59.8195 5.67337C59.8667 5.63559 59.9033 5.58623 59.9257 5.53012C59.9482 5.474 59.9557 5.41303 59.9476 5.35313C59.9134 5.23571 59.779 5.18447 59.6637 5.13964C59.0126 4.90547 58.427 4.51898 57.9557 4.01241C57.928 3.95477 57.9024 3.89926 57.8725 3.84162C57.3452 2.81259 56.5168 1.80065 55.3746 1.62772L55.3512 1.64266C54.3157 1.44198 53.1309 1.66828 52.4712 2.49663C51.9929 1.09186 50.5177 0.195199 49.0233 0.101263C47.5289 0.00732682 45.332 0.662743 44.0895 1.4676C43.2356 2.01841 42.4862 2.90653 41.6472 4.13837C41.5362 4.30276 41.423 4.47142 41.3077 4.64861C41.2971 4.66142 41.2907 4.6785 41.28 4.69345C40.9937 4.93757 40.6557 5.11349 40.2915 5.20796C39.6895 5.38942 39.271 5.2656 38.7693 4.88559C38.6178 4.7703 38.4256 4.62513 38.257 4.7148C38.2083 4.74994 38.1682 4.79567 38.1397 4.84855C38.1112 4.90143 38.0951 4.96008 38.0926 5.02009C38.0029 5.66056 38.3936 6.29036 38.9252 6.64902C39.1883 6.81838 39.4765 6.94519 39.7792 7.02476C39.0731 7.5769 38.2513 7.96225 37.3752 8.15199C37.023 8.22672 36.6536 8.27155 36.374 8.5192C36.2427 8.63131 36.1594 8.78947 36.1413 8.96112C36.1135 9.339 36.4466 9.55249 36.7625 9.65924C37.2461 9.81874 37.7662 9.83136 38.257 9.69553C38.1461 9.77127 38.0571 9.87489 37.999 9.99595C37.9409 10.117 37.9158 10.2512 37.9261 10.3851C37.9577 10.5801 38.0526 10.7593 38.1961 10.8951C38.3396 11.0309 38.5238 11.1157 38.7202 11.1366C38.9176 11.1504 39.1151 11.1128 39.2936 11.0275C39.4721 10.9422 39.6254 10.8121 39.7386 10.6498C39.626 10.7725 39.5324 10.9114 39.461 11.0619C39.1045 11.8198 40.1741 12.4752 40.6844 11.8112C40.8433 11.9982 40.9922 12.1935 41.1305 12.3962L41.1604 12.4325C41.2482 12.5587 41.343 12.6799 41.4444 12.7954L42.8598 14.8834C42.6976 13.7348 42.356 11.7322 42.2791 10.4812C44.0191 10.0542 45.2168 9.10843 46.1412 7.57557C46.6301 6.76644 46.9695 6.2135 47.721 5.64134C48.6796 4.90907 51.7389 5.53887 52.9707 5.72034C53.1676 7.97561 53.8384 10.1639 54.9391 12.1421C55.1078 12.4453 55.8272 13.5512 56.1688 13.6131C56.837 13.7326 56.4912 12.9214 56.9374 12.6695C57.2832 12.4752 57.4775 12.52 58.2183 12.3642C58.3486 11.6212 58.1522 9.6998 58.1799 8.63448C58.5788 8.67694 58.9822 8.62653 59.3584 8.48717L58.8439 7.68445C59.0138 7.76429 59.1984 7.80791 59.3861 7.81254C59.4788 7.81147 59.5691 7.78262 59.6452 7.72972C59.7213 7.67682 59.7798 7.6023 59.8131 7.51579C59.8772 7.28095 59.685 7.06533 59.5249 6.87532C59.3393 6.66524 59.1721 6.43953 59.0253 6.20069Z" fill="#263238"/>
<path d="M51.2866 3.20541C51.4524 3.29088 51.6115 3.38865 51.7627 3.4979C52.1604 3.82083 52.4672 4.24167 52.653 4.71906C52.7876 5.04391 52.8892 5.38151 52.9561 5.72674C53.0308 6.09821 53.0778 6.50384 53.1312 6.92869C53.1798 7.37703 53.2561 7.82194 53.3596 8.26087C53.417 8.49349 53.4927 8.72121 53.5859 8.94191C53.6695 9.1817 53.8127 9.39624 54.0022 9.5653C54.0881 9.62997 54.1892 9.67142 54.2958 9.68563C54.4024 9.69984 54.5108 9.68634 54.6107 9.64643C54.8027 9.57145 54.9637 9.43377 55.0675 9.25574C55.228 8.91129 55.2936 8.53026 55.2575 8.15199L55.1743 8.17974C55.3564 8.46042 55.5778 8.7135 55.8318 8.93123C56.0757 9.13056 56.3866 9.22909 56.7007 9.20663C56.8467 9.19279 56.9861 9.13967 57.1042 9.05292C57.2126 8.9669 57.2922 8.85002 57.3327 8.71774C57.3722 8.59634 57.3781 8.46649 57.3498 8.342C57.3201 8.22696 57.2524 8.12536 57.1576 8.05378L57.1235 8.10075C57.4173 8.32993 57.7564 8.49435 58.1183 8.58324C58.2131 8.6069 58.3094 8.62401 58.4065 8.63448C58.4406 8.63737 58.4749 8.63737 58.509 8.63448C58.4767 8.62262 58.443 8.61543 58.4087 8.61313C58.3446 8.60032 58.2486 8.58111 58.1269 8.54695C57.7744 8.4467 57.4455 8.27683 57.1597 8.04738L57.1235 8.09435C57.2066 8.16618 57.2651 8.2623 57.2908 8.36915C57.3165 8.47601 57.308 8.58822 57.2665 8.68999C57.2274 8.80845 57.1529 8.91204 57.053 8.98674C56.9455 9.06482 56.8183 9.11139 56.6858 9.12124C56.3928 9.14 56.1038 9.0452 55.8788 8.85651C55.6306 8.64348 55.4148 8.39534 55.2383 8.11997L55.1551 8.00255V8.14772C55.1892 8.50824 55.1274 8.87137 54.9757 9.20023C54.885 9.36013 54.7439 9.48549 54.5744 9.55676C54.4898 9.59131 54.3976 9.60319 54.307 9.5912C54.2164 9.57922 54.1305 9.5438 54.0577 9.48844C53.8825 9.32841 53.7498 9.12742 53.6713 8.90348C53.5804 8.68724 53.5055 8.46461 53.4471 8.23739C53.3444 7.80252 53.2674 7.36196 53.2166 6.91801C53.1611 6.49103 53.112 6.08754 53.033 5.70966C52.9612 5.36044 52.8547 5.01928 52.7149 4.69131C52.519 4.21032 52.1984 3.79026 51.7862 3.47441C51.6365 3.35647 51.4675 3.26545 51.2866 3.20541Z" fill="#455A64"/>
<path d="M39.5447 9.56958C39.5447 9.56958 39.5447 9.56958 39.581 9.59093L39.6963 9.64644C39.7588 9.67556 39.823 9.70122 39.8884 9.72329C39.977 9.75581 40.0676 9.7829 40.1595 9.80442C40.7496 9.94379 41.3649 9.93499 41.9507 9.7788C42.8229 9.54944 43.6098 9.07182 44.2159 8.40392C44.9448 7.58302 45.4984 6.62189 45.8427 5.57944C46.0412 5.03291 46.1842 4.48424 46.3572 3.96972C46.5113 3.47191 46.7349 2.99829 47.0211 2.56282C47.281 2.17097 47.6348 1.85027 48.0501 1.62987C48.2387 1.53497 48.4412 1.47083 48.6501 1.43986C48.8436 1.41532 49.0394 1.41532 49.2329 1.43986C49.5675 1.48657 49.8884 1.60372 50.1744 1.78358C50.3913 1.91924 50.5845 2.08943 50.7465 2.28742C50.8765 2.46304 50.986 2.65284 51.0732 2.85317C51.0732 2.85317 51.0732 2.83822 51.0625 2.81047C51.0518 2.78272 51.0347 2.74002 51.0177 2.69091C50.9544 2.53955 50.8734 2.39622 50.7764 2.26393C50.6162 2.05833 50.4228 1.88084 50.2043 1.73875C49.914 1.5494 49.5863 1.42489 49.2436 1.37368C49.043 1.34693 48.8399 1.34693 48.6394 1.37368C48.4219 1.40352 48.2106 1.46841 48.0138 1.56582C47.5833 1.78891 47.2161 2.11717 46.9464 2.52012C46.6522 2.96011 46.4235 3.4405 46.2675 3.94624C46.0903 4.46502 45.9473 5.01369 45.7509 5.55382C45.4106 6.58362 44.866 7.53414 44.1497 8.34842C43.5571 9.0086 42.7871 9.48439 41.9315 9.71902C41.3567 9.87896 40.7518 9.898 40.1681 9.77453C39.9565 9.71839 39.7483 9.64995 39.5447 9.56958Z" fill="#455A64"/>
<path d="M38.8293 7.86591C38.8812 7.89772 38.9373 7.92215 38.9959 7.9385C39.1489 7.99494 39.3059 8.0399 39.4656 8.073C39.704 8.12274 39.946 8.15344 40.1893 8.1648C40.4878 8.17388 40.7866 8.1553 41.0817 8.10929C41.3728 8.05965 41.6586 7.98318 41.9356 7.88086C42.1634 7.79537 42.3834 7.69037 42.5932 7.56703C42.7349 7.4852 42.8705 7.39315 42.9988 7.29162C43.0488 7.2572 43.0941 7.21628 43.1333 7.16993C43.1226 7.15499 42.9198 7.31297 42.5612 7.50725C42.3504 7.62048 42.1313 7.71754 41.9057 7.7976C41.6275 7.89215 41.3418 7.96356 41.0518 8.01109C40.7622 8.05527 40.4694 8.07527 40.1765 8.07086C39.9375 8.06509 39.6992 8.04226 39.4634 8.00255C39.077 7.93636 38.8358 7.84883 38.8293 7.86591Z" fill="#455A64"/>
<path d="M50.6334 18.2544C50.6462 18.3099 50.1638 18.5084 49.5937 18.8265C49.0237 19.1446 48.5711 19.4157 48.5263 19.3666C48.4814 19.3175 48.8935 18.9397 49.4827 18.6322C50.072 18.3248 50.6185 18.1882 50.6334 18.2544Z" fill="#263238"/>
<path d="M44.3759 29.9259L41.3507 31.0787C41.3507 31.0787 40.7914 33.0685 40.7914 34.5309C40.7914 35.4361 35.7402 49.8595 35.7402 49.8595L25.4457 47.193L22.6489 54.5392C23.2232 54.7997 35.215 59.7228 39.0877 59.9277C43.144 60.1412 46.0005 48.1857 46.0005 48.1857L44.3759 29.9259Z" fill="#263238"/>
<path d="M37.465 55.1605C37.4479 55.1605 37.4031 54.8445 37.307 54.3343C37.182 53.6716 37.0194 53.0166 36.8203 52.3723C36.6193 51.7278 36.3813 51.0955 36.1072 50.4786C35.8937 50.0047 35.755 49.7165 35.7699 49.7079C35.8176 49.7676 35.859 49.832 35.8937 49.9001C35.9663 50.026 36.0645 50.2118 36.1798 50.4445C36.4749 51.0565 36.7246 51.6895 36.927 52.3381C37.1288 52.9869 37.2815 53.6498 37.3839 54.3215C37.4223 54.5798 37.4479 54.789 37.4586 54.9342C37.4705 55.009 37.4727 55.0851 37.465 55.1605Z" fill="#455A64"/>
<path d="M62.6245 43.4953C62.5007 42.4941 62.838 35.1094 62.8231 34.9856C62.8081 34.8618 59.5396 24.6441 59.5396 24.6441L58.6557 21.4204L52.0375 27.0587C52.0375 27.0587 48.8565 25.1373 48.9099 24.9921L48.596 26.969L48.0474 27.2765L48.5683 35.7584L49.7318 68.4631C49.7318 68.4631 51.9222 70.045 56.6233 69.9575C62.4879 69.8401 70.2547 65.4891 70.2547 65.4891C70.2547 65.4891 62.7483 44.4966 62.6245 43.4953Z" fill="white"/>
<path d="M50.665 30.1116L51.8051 31.3072L53.1778 31.0787L53.6881 29.6078L52.5929 28.0344L51.5147 28.2735L50.665 30.1116Z" fill="#003032"/>
<path d="M59.1664 25.8696C59.0835 25.9804 58.9883 26.0814 58.8825 26.1706L58.0648 26.937C57.3688 27.5775 56.3974 28.4528 55.3172 29.4114L54.3031 30.308L54.2326 30.37L54.1729 30.3016C53.5725 29.5899 53.0367 28.8261 52.5717 28.0194C52.3924 27.7248 52.2557 27.4857 52.1618 27.3213C52.106 27.2408 52.0628 27.1522 52.0337 27.0587C52.2696 27.3417 52.4837 27.6421 52.6742 27.9575C53.1686 28.734 53.7165 29.4752 54.3138 30.1757H54.1835L55.1955 29.2747C56.2736 28.3162 57.2599 27.4558 57.9709 26.841L58.8248 26.1215C58.9269 26.0226 59.0418 25.9379 59.1664 25.8696Z" fill="#263238"/>
<path d="M48.8608 29.0015C49.0393 29.1167 49.201 29.2561 49.3412 29.4157C49.6294 29.6889 50.0265 30.0839 50.4791 30.5429L50.3297 30.5664C50.4449 30.3337 50.5624 30.0796 50.6819 29.8149C51.0299 29.0442 51.3395 28.3418 51.585 27.8444C51.7002 27.5644 51.8508 27.3003 52.0333 27.0587C51.9485 27.3476 51.84 27.6289 51.7088 27.8999C51.4953 28.4101 51.2071 29.121 50.8548 29.8939C50.7353 30.1607 50.6136 30.4169 50.4919 30.6496L50.4321 30.7649L50.3425 30.6731C49.8984 30.2034 49.5205 29.7935 49.2558 29.4968C49.1047 29.3482 48.972 29.1819 48.8608 29.0015Z" fill="#263238"/>
<path d="M51.8052 31.3072V63.3756L55.6907 67.2867L58.5472 63.0191L53.1779 31.0787L51.8052 31.3072Z" fill="#003032"/>
<path opacity="0.3" d="M64.5032 60.4956L69.2661 77.8609C69.3215 78.064 69.4222 78.2519 69.5607 78.4105C69.6991 78.5691 69.8718 78.6941 70.0656 78.7763C70.2594 78.8586 70.4693 78.8957 70.6795 78.8851C70.8898 78.8744 71.0949 78.8162 71.2794 78.7149L75.483 76.4049" fill="black"/>
<path d="M71.5746 53.3586L73.2526 25.1779L62.7062 23.6023C62.7062 23.6023 59.205 21.8453 58.9167 21.6809L59.3886 24.7039C59.3886 24.7039 60.5777 40.1137 61.4765 46.2899C62.3753 52.4662 62.3561 54.3193 64.5038 60.4913C66.248 65.4977 69.3991 73.922 70.5264 76.9301C70.5786 77.0688 70.6596 77.1949 70.764 77.3001C70.8683 77.4054 70.9937 77.4874 71.132 77.5408C71.2703 77.5942 71.4182 77.6178 71.5662 77.6101C71.7143 77.6023 71.859 77.5634 71.9909 77.4959L80.5519 73.0958L71.5746 53.3586Z" fill="#263238"/>
<path d="M63.1582 52.4342C63.1415 52.334 63.133 52.2326 63.1326 52.131C63.1326 51.9325 63.1049 51.6379 63.1049 51.26C63.1049 50.5021 63.1049 49.4048 63.1433 48.0576C63.218 45.3506 63.3931 41.6145 63.6322 37.4898C63.8222 34.185 64.0207 31.1321 64.1936 28.6834L64.2321 28.7559L62.6864 27.8123L62.6224 27.7739L62.6672 27.7141L63.8243 26.1919V26.2517L62.8999 24.7274C62.8038 24.5587 62.7248 24.4242 62.6629 24.3196C62.6337 24.2739 62.6094 24.2252 62.5903 24.1744C62.628 24.2139 62.6609 24.2576 62.6885 24.3047C62.7547 24.4071 62.8401 24.5374 62.9469 24.6975L63.9097 26.2047L63.9289 26.2346L63.9076 26.2645C63.5788 26.7086 63.2016 27.2217 62.7761 27.8038L62.7569 27.7056L64.3132 28.615L64.3538 28.6385V28.6876C64.2065 31.1449 64.025 34.1936 63.8286 37.4963C63.5895 41.6188 63.4016 45.3527 63.2842 48.0555C63.2265 49.409 63.1988 50.5021 63.1838 51.2579C63.1838 51.6357 63.1838 51.9282 63.1838 52.1289C63.1838 52.2312 63.1752 52.3333 63.1582 52.4342Z" fill="#455A64"/>
<path d="M48.5641 77.9591C48.7507 78.0269 48.9514 78.0467 49.1477 78.0168C49.344 77.9869 49.5297 77.9083 49.6877 77.788C49.8458 77.6678 49.9711 77.5098 50.0523 77.3286C50.1335 77.1474 50.1679 76.9487 50.1524 76.7508L49.9112 54.9939L48.7669 25.8759L47.7421 27.6522L41.3374 31.0787C41.3374 31.0787 41.7879 34.1935 42.6632 39.3301C43.515 44.2511 45.1802 56.3325 45.1802 56.3325L43.8993 76.2298L48.5641 77.9591Z" fill="#263238"/>
<path d="M42.072 35.6795C42.0791 35.6958 42.0841 35.7131 42.0869 35.7307C42.0869 35.7713 42.104 35.8204 42.1168 35.8823C42.1446 36.0253 42.1787 36.2196 42.2257 36.4672C42.3154 36.986 42.4392 37.7204 42.5993 38.6235C42.9089 40.4467 43.3252 42.9659 43.7586 45.7519C44.1919 48.538 44.557 51.0679 44.794 52.9017C44.9135 53.8176 45.0075 54.5606 45.0545 55.0751C45.0801 55.3249 45.0993 55.5213 45.1142 55.6664C45.1142 55.7276 45.1185 55.7789 45.127 55.8202C45.1299 55.8378 45.1299 55.8559 45.127 55.8735C45.127 55.8735 45.127 55.8565 45.1164 55.8223C45.1057 55.7881 45.1014 55.7305 45.0929 55.6686C45.0737 55.5255 45.0459 55.3291 45.0117 55.0793C44.9413 54.5584 44.8388 53.8198 44.715 52.9124C44.4588 51.0807 44.0745 48.5572 43.6475 45.769C43.2206 42.9808 42.8107 40.4702 42.5203 38.6363C42.3773 37.7311 42.262 36.9946 42.1809 36.4736C42.1424 36.226 42.1147 36.0296 42.0933 35.8865C42.0933 35.8225 42.0784 35.7734 42.072 35.7328C42.0701 35.7151 42.0701 35.6972 42.072 35.6795Z" fill="#455A64"/>
<g opacity="0.3">
<path d="M42.4671 38.0599C41.596 42.1504 42.4244 46.9966 44.239 50.31C43.6498 46.6273 43.0563 41.749 42.4671 38.0599Z" fill="black"/>
</g>
<path d="M50.063 68.6616C50.0732 68.7151 50.0789 68.7694 50.0801 68.8239C50.0801 68.9392 50.095 69.0929 50.1036 69.285C50.1228 69.6992 50.1463 70.2756 50.1762 70.993C50.2253 72.4404 50.2936 74.4088 50.3683 76.6014L50.3811 77.0091C50.3892 77.1789 50.3614 77.3485 50.2998 77.5068C50.2381 77.6652 50.1438 77.8088 50.023 77.9284C49.9022 78.048 49.7576 78.1408 49.5987 78.2009C49.4397 78.261 49.2698 78.287 49.1002 78.2773C48.972 78.2677 48.8461 78.2389 48.7266 78.1919L48.3914 78.0595L46.043 77.1244L44.4674 76.4839L44.0404 76.3046C43.9906 76.2849 43.9422 76.2621 43.8953 76.2363C43.9479 76.2468 43.9994 76.2626 44.049 76.2833L44.476 76.4434L46.0665 77.0497L48.4149 77.9634C48.6285 78.068 48.8566 78.1399 49.0916 78.1769C49.3394 78.1922 49.5851 78.1236 49.7892 77.9822C49.9933 77.8409 50.1439 77.635 50.2167 77.3977C50.2704 77.1386 50.2819 76.8726 50.2509 76.6099C50.189 74.4237 50.1313 72.4468 50.0908 70.9994C50.0758 70.2906 50.063 69.7184 50.0545 69.2914C50.0545 69.0993 50.0545 68.9456 50.0545 68.8282C50.0517 68.7725 50.0545 68.7167 50.063 68.6616Z" fill="#455A64"/>
<path d="M71.593 37.2657L82.6049 42.3745L74.7057 53.8689L80.9738 58.3863C80.9738 58.3863 88.7171 48.6725 91.326 43.3117C91.9045 42.1205 92.3144 38.2627 89.8443 36.3285C88.5164 35.2866 86.1403 33.8712 81.8149 30.8716C79.2061 29.0634 73.856 26.1428 73.856 26.1428L73.254 25.1736L71.593 37.2657Z" fill="#263238"/>
<path d="M71.4843 36.8964C71.4599 36.8627 71.4399 36.8261 71.4245 36.7875L71.2687 36.463C71.2367 36.3904 71.2004 36.3114 71.1598 36.2281C71.1192 36.1449 71.0894 36.0424 71.0509 35.9378C70.9579 35.7045 70.8774 35.4665 70.8097 35.2247C70.7734 35.0902 70.7328 34.9493 70.6923 34.7977C70.6517 34.6462 70.6282 34.4946 70.5941 34.3345C70.5227 33.9916 70.4693 33.6453 70.4339 33.2969C70.273 31.6943 70.4646 30.0759 70.9954 28.5553C71.1107 28.2251 71.2425 27.9009 71.3904 27.5839C71.4608 27.4366 71.5206 27.2893 71.6039 27.1569C71.6871 27.0245 71.749 26.8965 71.8174 26.7748C71.9394 26.5546 72.0727 26.3408 72.2166 26.1343C72.2785 26.0425 72.334 25.955 72.3895 25.8781L72.5518 25.6646C72.6436 25.5515 72.7183 25.4511 72.7759 25.3849C72.8014 25.3517 72.83 25.3209 72.8613 25.2931C72.8432 25.331 72.821 25.3668 72.7951 25.3999L72.5817 25.6902L72.4301 25.9037C72.3746 25.9806 72.3233 26.0702 72.2636 26.162C72.1483 26.3499 72.0052 26.5549 71.8814 26.8025C71.8159 26.9235 71.7448 27.0516 71.6679 27.1868C71.5975 27.3192 71.5377 27.4665 71.4694 27.6138C71.3263 27.9084 71.2153 28.2372 71.0872 28.5809C70.5743 30.0901 70.3852 31.6905 70.5321 33.2777C70.577 33.6428 70.609 33.9886 70.6795 34.3067C70.7115 34.4668 70.735 34.6227 70.7713 34.77C70.8076 34.9173 70.846 35.0561 70.8823 35.197C70.9442 35.4681 71.036 35.7008 71.0958 35.91C71.1321 36.0146 71.1619 36.1128 71.1961 36.2004L71.2964 36.4395L71.4395 36.7789C71.4594 36.816 71.4745 36.8554 71.4843 36.8964Z" fill="#455A64"/>
<path d="M87.2737 40.7733C87.2737 40.7926 86.9855 40.7306 86.5201 40.72C86.2474 40.7139 85.9746 40.7303 85.7046 40.7691C85.0435 40.8648 84.4079 41.0904 83.8344 41.433C83.6043 41.5717 83.3859 41.7288 83.1811 41.9027C82.8267 42.2059 82.6453 42.4343 82.6282 42.4194C82.6604 42.3586 82.6998 42.302 82.7456 42.2507C82.7941 42.1867 82.8468 42.126 82.9036 42.0692C82.9747 41.9896 83.0502 41.914 83.1299 41.8429C83.3347 41.6551 83.5562 41.4865 83.7917 41.3391C84.0824 41.1619 84.3899 41.0139 84.7097 40.8972C85.0317 40.7852 85.3644 40.7065 85.7024 40.6623C85.9778 40.6276 86.2558 40.6183 86.5329 40.6346C86.6394 40.6398 86.7456 40.6505 86.851 40.6666C86.9308 40.6761 87.0099 40.6904 87.088 40.7093C87.1527 40.7214 87.2153 40.743 87.2737 40.7733Z" fill="#455A64"/>
<path d="M74.2256 55.2011L78.9096 59.6844L80.3015 57.9017L75.0561 54.0909L74.2256 55.2011Z" fill="white"/>
<path d="M63.8733 55.2928C63.8733 55.2928 67.1205 54.0759 67.6286 54.1955C68.1367 54.315 70.9035 55.5896 71.4714 55.5597C72.0393 55.5298 72.7524 55.5597 72.7524 55.5597C72.7524 55.5597 72.1311 54.7292 72.1887 54.3727C72.2034 54.292 72.2421 54.2176 72.2998 54.1592C72.3593 54.0988 72.4315 54.0522 72.511 54.0228C72.5906 53.9934 72.6757 53.9819 72.7603 53.989C72.8448 53.9961 72.9267 54.0218 73.0003 54.0641C73.0738 54.1064 73.1371 54.1644 73.1857 54.2339C73.6277 54.8274 74.535 55.7988 74.7784 55.7134L78.032 58.8282C78.032 58.8282 77.1567 60.6322 75.5192 60.6621C73.8817 60.692 69.5906 60.3654 69.2532 60.4849C68.9159 60.6045 68.2648 60.8692 68.2648 60.8692C68.2648 60.8692 66.5697 62.2355 66.2601 62.2057C65.9505 62.1758 65.6196 62.116 65.6389 61.7296C65.6581 61.3431 67.3895 59.8081 67.699 59.5349C68.0086 59.2616 69.0547 58.8517 69.0547 58.8517L66.9561 59.2403C66.9561 59.2403 64.7529 60.4572 64.1594 60.3077C63.5659 60.1583 63.4548 59.9512 63.6235 59.6843C63.7922 59.4175 66.4181 57.8739 66.4181 57.8739L66.8899 57.5814C66.8899 57.5814 64.1252 58.9819 63.5402 58.9435C62.9553 58.9051 62.7076 58.6169 62.8998 58.2902C63.0919 57.9636 65.6367 56.4798 65.863 56.2727C66.0893 56.0657 66.717 55.9461 66.717 55.9461C66.082 56.1676 65.4088 56.2584 64.7379 56.213C63.5637 56.1532 63.7324 55.7091 63.8733 55.2928Z" fill="#FFBF9D"/>
<path d="M69.484 57.2954C68.3379 57.1095 67.1627 57.3211 66.1536 57.8953C66.2794 57.7769 66.4236 57.6795 66.5805 57.6071C66.9473 57.4106 67.3429 57.2737 67.7526 57.2014C68.1612 57.1267 68.5791 57.1166 68.9909 57.1716C69.1606 57.1877 69.3268 57.2295 69.484 57.2954Z" fill="#003032"/>
<path d="M69.0526 55.6728C68.4972 55.5721 67.9293 55.5606 67.3703 55.6387C66.8178 55.7534 66.2869 55.9545 65.7969 56.2343C65.9141 56.1119 66.0521 56.0114 66.2046 55.9376C66.5609 55.7377 66.9486 55.5998 67.3511 55.5298C67.7537 55.4597 68.1654 55.4597 68.568 55.5298C68.7368 55.5478 68.901 55.5963 69.0526 55.6728Z" fill="#003032"/>
<path d="M25.4404 54.9598C25.1595 55.1403 24.8185 55.2018 24.4922 55.131C24.166 55.0601 23.8812 54.8626 23.7005 54.5819L12.7847 37.5816C12.6044 37.3005 12.5432 36.9593 12.6145 36.633C12.6857 36.3067 12.8836 36.0221 13.1647 35.8417C13.4457 35.6621 13.7864 35.6013 14.1122 35.6725C14.4379 35.7437 14.7222 35.9412 14.9025 36.2217L25.8183 53.2177C25.9086 53.3567 25.9704 53.5122 26.0003 53.6752C26.0301 53.8382 26.0274 54.0055 25.9923 54.1675C25.9571 54.3294 25.8903 54.4828 25.7956 54.6188C25.7009 54.7548 25.5802 54.8707 25.4404 54.9598Z" fill="#455A64"/>
<path opacity="0.3" d="M16.5489 38.7815L14.3606 40.0347L14.8474 40.7904L17.0143 39.5095L16.5489 38.7815Z" fill="black"/>
<path d="M10.5624 26.7107C14.1576 33.2563 15.8335 39.2106 14.3155 40.0432C12.7976 40.8758 8.66018 36.2751 5.065 29.7338C1.46982 23.1924 -0.214621 17.204 1.3033 16.3692C2.82121 15.5345 6.96507 20.163 10.5624 26.7107Z" fill="white"/>
<path d="M12.845 25.5066C9.24986 18.9589 5.106 14.3283 3.58809 15.1609L0.560791 16.7749C2.07871 15.9423 6.2247 20.5729 9.81988 27.1206C13.4151 33.6684 15.0995 39.6504 13.5816 40.483L16.2438 38.9587L16.895 38.5872H16.9056C17.8535 37.0906 16.1606 31.542 12.845 25.5066Z" fill="#455A64"/>
<path d="M6.0045 28.9886C3.19924 23.8777 1.5639 19.1211 1.70267 16.8794C1.2394 16.666 0.848709 16.6147 0.556227 16.7748C-0.961692 17.6096 0.722748 23.5916 4.31793 30.1393C7.91311 36.6871 12.0591 41.3177 13.577 40.483C13.9079 40.3015 14.0937 39.8745 14.1321 39.2447C12.1851 38.3267 8.91011 34.2768 6.0045 28.9886Z" fill="#263238"/>
<path d="M8.88709 32.8571C8.85507 32.8571 8.88709 31.51 8.93833 29.849C8.98956 28.1881 9.06856 26.8431 9.10058 26.8431C9.1326 26.8431 9.10058 28.1923 9.04934 29.8533C8.99811 31.5143 8.91698 32.8592 8.88709 32.8571Z" fill="#455A64"/>
<path d="M7.17863 29.6825C7.15387 29.49 7.14743 29.2955 7.15941 29.1018C7.15941 28.7453 7.17436 28.2478 7.19357 27.7056C7.21279 27.1633 7.23627 26.6659 7.25762 26.3093C7.25959 26.115 7.2796 25.9214 7.31739 25.7308C7.3434 25.9232 7.34984 26.1178 7.33661 26.3115C7.33661 26.6701 7.3238 27.1654 7.30459 27.7098C7.28537 28.2542 7.25975 28.7474 7.2384 29.1061C7.23636 29.2996 7.21635 29.4926 7.17863 29.6825Z" fill="#455A64"/>
<path d="M8.12916 30.1949C8.10892 29.7148 8.12462 29.2338 8.17613 28.756C8.19172 28.2759 8.24382 27.7977 8.33197 27.3256C8.35492 27.8057 8.33993 28.2868 8.28714 28.7645C8.2728 29.2448 8.21997 29.7231 8.12916 30.1949Z" fill="#455A64"/>
<path d="M15.4597 41.7469C15.4747 41.8002 18.5767 42.492 18.9097 43.047C19.2428 43.6021 18.7944 43.8369 18.3973 43.9394C18.232 43.9968 18.0579 44.0249 17.8828 44.0227C17.8828 44.0227 19.8427 44.3322 19.8918 45.0474C19.9409 45.7626 19.1211 45.8181 19.1211 45.8181C19.1211 45.8181 19.8256 46.1149 19.8405 46.7426C19.8503 46.9114 19.7948 47.0776 19.6856 47.2067C19.5763 47.3358 19.4216 47.4181 19.2534 47.4364C19.2534 47.4364 19.99 47.684 19.3773 48.2583C18.7646 48.8326 17.2552 48.5209 17.2552 48.5209" fill="#FFBF9D"/>
<path d="M17.2556 48.5209C17.2556 48.5209 17.3367 48.5209 17.4883 48.5466C17.7071 48.5732 17.9275 48.5854 18.148 48.5828C18.4888 48.5931 18.8275 48.5259 19.1386 48.3864C19.3236 48.2945 19.4736 48.1445 19.5656 47.9595C19.5855 47.9126 19.5922 47.8612 19.5851 47.8108C19.5779 47.7604 19.5572 47.7129 19.525 47.6734C19.4511 47.5883 19.3561 47.5243 19.2496 47.4876C19.238 47.4833 19.2287 47.4746 19.2235 47.4634C19.2183 47.4523 19.2177 47.4395 19.2218 47.4279C19.2247 47.4201 19.2296 47.4133 19.236 47.4081C19.2423 47.4028 19.25 47.3993 19.2581 47.398C19.4194 47.3762 19.5669 47.2956 19.6723 47.1717C19.7235 47.1037 19.7606 47.0262 19.7815 46.9437C19.8024 46.8613 19.8066 46.7755 19.794 46.6913C19.762 46.3348 19.4545 46.038 19.1087 45.8758C19.0959 45.8693 19.086 45.8582 19.0813 45.8447C19.0765 45.8311 19.0771 45.8163 19.0831 45.8032C19.0873 45.7945 19.0936 45.7871 19.1014 45.7815C19.1092 45.7759 19.1183 45.7723 19.1279 45.7712C19.2643 45.7657 19.3972 45.7261 19.5143 45.656C19.6314 45.5859 19.729 45.4875 19.7983 45.3698C19.8534 45.2424 19.8625 45.0997 19.8239 44.9663C19.7659 44.8345 19.6691 44.7235 19.5463 44.6482C19.2922 44.488 19.016 44.3658 18.7265 44.2853C18.4501 44.2002 18.1684 44.1332 17.8833 44.0846L17.9025 43.9779C18.0894 43.9689 18.2744 43.9366 18.4533 43.8818C18.6273 43.8437 18.7867 43.7562 18.9123 43.6299C18.9594 43.564 18.986 43.4857 18.9886 43.4048C18.9913 43.3238 18.9699 43.2439 18.9272 43.1751C18.8966 43.1005 18.8491 43.034 18.7885 42.9809C18.7255 42.9298 18.6584 42.884 18.5878 42.8442C18.3133 42.6988 18.0277 42.5753 17.7338 42.4749C17.4584 42.3767 17.2001 42.2934 16.9674 42.2208C16.028 41.9348 15.458 41.7938 15.4729 41.7554C15.4729 41.7554 15.6138 41.7938 15.8764 41.8579C16.139 41.9219 16.5169 42.018 16.9909 42.1546C17.2278 42.223 17.4862 42.302 17.7637 42.398C18.0646 42.4947 18.3567 42.6168 18.6369 42.7631C18.7127 42.8042 18.7843 42.8528 18.8504 42.9083C18.922 42.9695 18.9789 43.0462 19.0169 43.1324C19.0596 43.2183 19.0843 43.312 19.0895 43.4078C19.0916 43.5118 19.0568 43.6132 18.9913 43.6939C18.8539 43.8389 18.6761 43.9393 18.481 43.9821C18.3871 44.0099 18.2932 44.0312 18.1949 44.0526C18.0922 44.0772 17.9867 44.088 17.8811 44.0846C17.8741 44.0841 17.8673 44.0821 17.861 44.0789C17.8547 44.0758 17.8491 44.0714 17.8446 44.066C17.84 44.0606 17.8366 44.0544 17.8344 44.0477C17.8322 44.041 17.8314 44.034 17.832 44.027C17.8331 44.0126 17.8397 43.9993 17.8505 43.9897C17.8612 43.9801 17.8753 43.9751 17.8897 43.9757H17.9003C18.1891 44.0247 18.4743 44.0924 18.7543 44.1785C19.0556 44.2619 19.3433 44.3884 19.6083 44.5543C19.75 44.6424 19.8611 44.7722 19.9264 44.9258C19.952 45.0064 19.9614 45.0913 19.9541 45.1755C19.9541 45.214 19.9413 45.2545 19.9349 45.2951C19.9285 45.3357 19.9093 45.3741 19.8965 45.4125C19.8245 45.5574 19.7067 45.6745 19.5613 45.7456C19.4278 45.8134 19.2831 45.8568 19.1343 45.8737L19.1514 45.769C19.3395 45.8569 19.5086 45.981 19.6488 46.1341C19.7865 46.284 19.8725 46.474 19.8943 46.6764C19.9084 46.7734 19.9025 46.8722 19.8772 46.9669C19.8519 47.0616 19.8076 47.1501 19.747 47.2272C19.6243 47.3693 19.4531 47.4606 19.2667 47.4834L19.2773 47.3937C19.4 47.4352 19.5091 47.5089 19.5933 47.6072C19.6335 47.6589 19.6592 47.7203 19.6678 47.7852C19.6765 47.8501 19.6677 47.9161 19.6424 47.9765C19.545 48.1783 19.3826 48.3415 19.1813 48.4398C18.8586 48.5797 18.5077 48.6425 18.1565 48.6234C17.9339 48.6201 17.7119 48.5994 17.4926 48.5615C17.4122 48.5577 17.3326 48.5441 17.2556 48.5209Z" fill="#003032"/>
<path d="M19.1772 45.8096C19.0125 45.8029 18.8491 45.7772 18.6904 45.7327L17.5247 45.5192C17.07 45.4317 16.6558 45.3548 16.3591 45.2929C16.1957 45.2689 16.0354 45.2274 15.8809 45.1691C16.0457 45.1649 16.2105 45.1799 16.3719 45.2139C16.6729 45.2566 17.0892 45.3228 17.5461 45.4082C18.003 45.4936 18.4129 45.5875 18.7075 45.6665C18.8691 45.6955 19.0268 45.7435 19.1772 45.8096Z" fill="#003032"/>
<path d="M16.0242 43.5679C16.3477 43.5628 16.6703 43.606 16.9811 43.6961C17.3001 43.7502 17.6091 43.8524 17.8974 43.9994C17.5788 43.9594 17.2638 43.8945 16.9554 43.805C16.6391 43.7513 16.3277 43.672 16.0242 43.5679Z" fill="#003032"/>
<path d="M16.615 47.1524C16.7418 47.1244 16.8718 47.1143 17.0014 47.1226C17.2405 47.1226 17.5714 47.1226 17.9365 47.1588C18.3799 47.177 18.8169 47.2717 19.2281 47.4385C19.2281 47.4684 18.6496 47.3296 17.9258 47.2699C17.4871 47.254 17.0495 47.2148 16.615 47.1524Z" fill="#003032"/>
</g>
<defs>
<clipPath id="clip0_84_1898">
<rect width="91.7647" height="94.9094" fill="white" transform="translate(0 0.0905762)"/>
</clipPath>
</defs>
</svg>
